<svg width="248" height="40" viewBox="0 0 248 40" fill="none" xmlns="http://www.w3.org/2000/svg">
<circle cx="20" cy="20" r="20" fill="black"/>
<path d="M12.5685 30.8001L7.79989 12.2001H12.0853L16.0976 28.3024H13.9339L18.1563 12.2001H21.9796L25.9709 28.3024H23.8912L28.0296 12.2001H31.9999L27.2313 30.8001H22.7778L19.3747 17.1158H20.5721L17.0219 30.8001H12.5685Z" fill="white"/>
<path d="M133.149 18.8395C132.193 18.8395 131.329 18.6758 130.557 18.3485C129.797 18.0212 129.195 17.5498 128.75 16.9344C128.305 16.3191 128.075 15.5924 128.062 14.7545H131.008C131.048 15.3175 131.244 15.7626 131.597 16.0899C131.964 16.4173 132.462 16.5809 133.09 16.5809C133.732 16.5809 134.236 16.4304 134.602 16.1292C134.969 15.815 135.152 15.4091 135.152 14.9116C135.152 14.5057 135.028 14.1718 134.779 13.91C134.53 13.6481 134.216 13.4452 133.836 13.3011C133.47 13.144 132.959 12.9738 132.304 12.7905C131.414 12.5286 130.687 12.2733 130.124 12.0246C129.575 11.7627 129.097 11.3765 128.691 10.8658C128.298 10.3421 128.102 9.64818 128.102 8.78404C128.102 7.97227 128.305 7.26525 128.71 6.66297C129.116 6.06069 129.686 5.60243 130.419 5.2882C131.152 4.96087 131.99 4.79721 132.933 4.79721C134.347 4.79721 135.493 5.14418 136.37 5.83811C137.26 6.51894 137.751 7.47473 137.843 8.70548H134.818C134.792 8.23413 134.589 7.84789 134.209 7.54675C133.843 7.23251 133.352 7.0754 132.737 7.0754C132.2 7.0754 131.768 7.21287 131.44 7.48783C131.126 7.76278 130.969 8.16212 130.969 8.68584C130.969 9.05244 131.087 9.36013 131.322 9.6089C131.571 9.84457 131.872 10.041 132.226 10.1981C132.593 10.3421 133.103 10.5123 133.758 10.7087C134.648 10.9706 135.375 11.2324 135.938 11.4943C136.501 11.7562 136.985 12.1489 137.391 12.6727C137.797 13.1964 138 13.8838 138 14.7348C138 15.468 137.81 16.1489 137.43 16.7773C137.051 17.4058 136.494 17.9099 135.761 18.2896C135.028 18.6562 134.157 18.8395 133.149 18.8395Z" fill="#474747"/>
<path d="M125.697 4.99304V18.7014H122.948V9.78509L119.275 18.7014H117.193L113.501 9.78509V18.7014H110.751V4.99304H113.874L118.234 15.186L122.594 4.99304H125.697Z" fill="#474747"/>
<path d="M106.68 6.52637C106.196 6.52637 105.79 6.3758 105.463 6.07466C105.149 5.76042 104.991 5.37418 104.991 4.91592C104.991 4.45767 105.149 4.07797 105.463 3.77683C105.79 3.4626 106.196 3.30548 106.68 3.30548C107.165 3.30548 107.564 3.4626 107.878 3.77683C108.206 4.07797 108.369 4.45767 108.369 4.91592C108.369 5.37418 108.206 5.76042 107.878 6.07466C107.564 6.3758 107.165 6.52637 106.68 6.52637ZM108.036 7.82258V18.7029H105.286V7.82258H108.036Z" fill="#474747"/>
<path d="M103.491 4.99304L99.6609 18.7014H96.4204L93.8476 8.94059L91.157 18.7014L87.9361 18.7211L84.2439 4.99304H87.1898L89.6055 15.6377L92.3943 4.99304H95.4581L98.0898 15.5788L100.525 4.99304H103.491Z" fill="#474747"/>
<path d="M83.1597 13.0262C83.1597 13.419 83.1335 13.7725 83.0811 14.0867H75.1271C75.1926 14.8723 75.4675 15.4877 75.952 15.9328C76.4364 16.378 77.0321 16.6006 77.7392 16.6006C78.7604 16.6006 79.4871 16.162 79.9191 15.2847H82.8847C82.5705 16.3322 81.9682 17.1963 81.0779 17.8772C80.1876 18.5449 79.0943 18.8788 77.7981 18.8788C76.7506 18.8788 75.8079 18.6496 74.97 18.1914C74.1451 17.72 73.497 17.0588 73.0257 16.2078C72.5674 15.3568 72.3383 14.3748 72.3383 13.2619C72.3383 12.1359 72.5674 11.1473 73.0257 10.2963C73.4839 9.44525 74.1255 8.7906 74.9503 8.33234C75.7752 7.87409 76.7245 7.64496 77.7981 7.64496C78.8324 7.64496 79.7555 7.86754 80.5673 8.3127C81.3921 8.75787 82.0271 9.39288 82.4723 10.2177C82.9305 11.0295 83.1597 11.9657 83.1597 13.0262ZM80.3119 12.2406C80.2988 11.5336 80.0435 10.9706 79.546 10.5516C79.0485 10.1195 78.4396 9.90351 77.7195 9.90351C77.0387 9.90351 76.4626 10.113 75.9912 10.532C75.533 10.9379 75.2515 11.5074 75.1467 12.2406H80.3119Z" fill="#474747"/>
<path d="M66.1886 7.66646C67.0135 7.66646 67.7467 7.84977 68.3883 8.21637C69.0298 8.56988 69.5274 9.10015 69.8809 9.80718C70.2475 10.5011 70.4308 11.3391 70.4308 12.321V18.7039H67.6812V12.6942C67.6812 11.83 67.4652 11.1689 67.0331 10.7106C66.6011 10.2392 66.0119 10.0036 65.2656 10.0036C64.5062 10.0036 63.9039 10.2392 63.4587 10.7106C63.0267 11.1689 62.8106 11.83 62.8106 12.6942V18.7039H60.0611V4.17062H62.8106V9.17871C63.1641 8.70736 63.6355 8.34076 64.2247 8.07889C64.8139 7.80394 65.4685 7.66646 66.1886 7.66646Z" fill="#474747"/>
<path d="M58.0554 4.99304V7.21231H54.4025V18.7014H51.653V7.21231H48V4.99304H58.0554Z" fill="#474747"/>
<path d="M135.918 35.7585H139V36.6931H134.769V27.8907H135.918V35.7585Z" fill="#9B9B9B"/>
<path d="M128.308 28.8261V31.7686H131.515V32.7158H128.308V35.7467H131.894V36.6939H127.159V27.8789H131.894V28.8261H128.308Z" fill="#9B9B9B"/>
<path d="M124.063 36.6939H122.914L118.292 29.6848V36.6939H117.143V27.8789H118.292L122.914 34.8753V27.8789H124.063V36.6939Z" fill="#9B9B9B"/>
<path d="M112.699 34.7363H108.86L108.153 36.6938H106.94L110.123 27.9419H111.449L114.619 36.6938H113.406L112.699 34.7363ZM112.371 33.8017L110.779 29.3564L109.188 33.8017H112.371Z" fill="#9B9B9B"/>
<path d="M104.931 30.467C104.931 31.1995 104.678 31.8099 104.173 32.2982C103.676 32.7781 102.914 33.0181 101.887 33.0181H100.195V36.6931H99.0456V27.8907H101.887C102.881 27.8907 103.634 28.1307 104.148 28.6106C104.67 29.0905 104.931 29.7093 104.931 30.467ZM101.887 32.0709C102.527 32.0709 102.998 31.932 103.301 31.6541C103.605 31.3763 103.756 30.9806 103.756 30.467C103.756 29.3809 103.133 28.8379 101.887 28.8379H100.195V32.0709H101.887Z" fill="#9B9B9B"/>
<path d="M91.447 36.6939H90.2978L85.6756 29.6848V36.6939H84.5264V27.8789H85.6756L90.2978 34.8753V27.8789H91.447V36.6939Z" fill="#9B9B9B"/>
<path d="M81.431 27.8907V36.6931H80.2818V27.8907H81.431Z" fill="#9B9B9B"/>
<path d="M77.1967 27.9555V36.6947H76.0474V30.1781L73.1428 36.6947H72.3345L69.4172 30.1655V36.6947H68.268V27.9555H69.5057L72.7387 35.1792L75.9716 27.9555H77.1967Z" fill="#9B9B9B"/>
<path d="M60.9431 27.8907C61.9029 27.8907 62.7322 28.0717 63.431 28.4338C64.1382 28.7874 64.677 29.2967 65.0475 29.9619C65.4263 30.627 65.6158 31.41 65.6158 32.3108C65.6158 33.2117 65.4263 33.9947 65.0475 34.6598C64.677 35.3165 64.1382 35.8217 63.431 36.1753C62.7322 36.5205 61.9029 36.6931 60.9431 36.6931H58.2026V27.8907H60.9431ZM60.9431 35.7459C62.0797 35.7459 62.9468 35.447 63.5446 34.8493C64.1424 34.2431 64.4413 33.3969 64.4413 32.3108C64.4413 31.2163 64.1382 30.3618 63.532 29.7472C62.9342 29.1326 62.0712 28.8253 60.9431 28.8253H59.3518V35.7459H60.9431Z" fill="#9B9B9B"/>
<path d="M53.7588 34.7363H49.9196L49.2124 36.6938H48L51.1825 27.9419H52.5085L55.6784 36.6938H54.466L53.7588 34.7363ZM53.4304 33.8017L51.8392 29.3564L50.2479 33.8017H53.4304Z" fill="#9B9B9B"/>
</svg>
